<?xml version='1.0' encoding='iso-8859-1'?>
<!DOCTYPE svg PUBLIC '-//W3C//DTD SVG 1.1//EN' 'http://www.w3.org/Graphics/SVG/1.1/DTD/svg11.dtd'>
<svg version="1.1" xmlns="http://www.w3.org/2000/svg" viewBox="0 0 512 512" xmlns:xlink="http://www.w3.org/1999/xlink" enable-background="new 0 0 512 512">
  <g>
    <circle cx="144" cy="432" r="48"/>
    <circle cx="384" cy="432" r="48"/>
    <path d="m151.125,205.313l48,32c2.727,1.82 5.813,2.688 8.859,2.688 5.172,0 10.242-2.5 13.328-7.125 4.898-7.352 2.914-17.289-4.438-22.188l-40.874-27.25v-39.438c0-8.836-7.164-16-16-16s-16,7.164-16,16v48c0.117,0 0.182,0 0.296-0.002 0.009,5.162 2.213,10.238 6.829,13.315z"/>
    <path d="M507.438,255.539l-48-80C453.656,165.898,443.242,160,432,160H320v-32c0-17.672-14.328-32-32-32h-0.304   C258.472,57.225,212.186,32,160,32S61.528,57.225,32.304,96H32c-17.672,0-32,14.328-32,32v288c0,17.672,14.328,32,32,32h33.612   C64.563,442.828,64,437.48,64,432c0-44.184,35.817-80,80-80s80,35.816,80,80c0,5.48-0.563,10.828-1.612,16H288h16v-16   c0-44.184,35.817-80,80-80s80,35.816,80,80v16h16c17.672,0,32-14.328,32-32V272C512,266.203,510.422,260.508,507.438,255.539z    M160,96c52.938,0,96,43.063,96,96s-43.063,96-96,96s-96-43.063-96-96S107.063,96,160,96z M448,288h-96v-16v-64h64l32,64V288z"/>
  </g>
</svg>
